<svg width="48" height="48" viewBox="0 0 48 48" fill="none" xmlns="http://www.w3.org/2000/svg">
<rect width="48" height="48" rx="16" fill="#18302F"/>
<path d="M24 34C29.5228 34 34 29.5228 34 24C34 18.4772 29.5228 14 24 14C18.4772 14 14 18.4772 14 24C14 29.5228 18.4772 34 24 34Z" stroke="#FAF5EA" stroke-width="2" stroke-linecap="round" stroke-linejoin="round"/>
<path d="M28.24 19.7598L26.436 25.1708C26.3378 25.4653 26.1724 25.733 25.9528 25.9526C25.7333 26.1722 25.4656 26.3376 25.171 26.4358L19.76 28.2398L21.564 22.8288C21.6622 22.5342 21.8276 22.2665 22.0472 22.0469C22.2667 21.8274 22.5344 21.6619 22.829 21.5638L28.24 19.7598Z" stroke="#FAF5EA" stroke-width="2" stroke-linecap="round" stroke-linejoin="round"/>
</svg>
