<svg width="48" height="48" viewBox="0 0 48 48" fill="none" xmlns="http://www.w3.org/2000/svg">
<rect width="48" height="48" rx="16" fill="#18302F"/>
<path d="M25.997 16C26.3578 16 26.7119 16.0976 27.0217 16.2824C27.3316 16.4673 27.5856 16.7325 27.757 17.05L28.243 17.95C28.4144 18.2675 28.6684 18.5327 28.9783 18.7176C29.2881 18.9024 29.6422 19 30.003 19H32C32.5304 19 33.0391 19.2107 33.4142 19.5858C33.7893 19.9609 34 20.4696 34 21V30C34 30.5304 33.7893 31.0391 33.4142 31.4142C33.0391 31.7893 32.5304 32 32 32H16C15.4696 32 14.9609 31.7893 14.5858 31.4142C14.2107 31.0391 14 30.5304 14 30V21C14 20.4696 14.2107 19.9609 14.5858 19.5858C14.9609 19.2107 15.4696 19 16 19H17.997C18.3574 19 18.7111 18.9026 19.0208 18.7182C19.3304 18.5337 19.5844 18.269 19.756 17.952L20.245 17.048C20.4166 16.731 20.6706 16.4663 20.9802 16.2818C21.2899 16.0974 21.6436 16 22.004 16H25.997Z" stroke="#FAF5EA" stroke-width="2" stroke-linecap="round" stroke-linejoin="round"/>
<path d="M24 28C25.6569 28 27 26.6569 27 25C27 23.3431 25.6569 22 24 22C22.3431 22 21 23.3431 21 25C21 26.6569 22.3431 28 24 28Z" stroke="#FAF5EA" stroke-width="2" stroke-linecap="round" stroke-linejoin="round"/>
</svg>
