<svg width="14" height="14" viewBox="0 0 14 14" fill="none" xmlns="http://www.w3.org/2000/svg">
<g clip-path="url(#clip0_15_3390)">
<path d="M7.35058 12.7162C8.43558 11.7793 11.6667 8.746 11.6667 5.83341C11.6667 4.59574 11.175 3.40875 10.2998 2.53358C9.42466 1.65841 8.23767 1.16675 6.99999 1.16675C5.76232 1.16675 4.57533 1.65841 3.70016 2.53358C2.82499 3.40875 2.33333 4.59574 2.33333 5.83341C2.33333 8.746 5.56441 11.7793 6.64941 12.7162C6.75049 12.7922 6.87353 12.8333 6.99999 12.8333C7.12646 12.8333 7.2495 12.7922 7.35058 12.7162Z" stroke="#18302F" stroke-width="1.16667" stroke-linecap="round" stroke-linejoin="round"/>
<path d="M7 7.58325C7.9665 7.58325 8.75 6.79975 8.75 5.83325C8.75 4.86675 7.9665 4.08325 7 4.08325C6.0335 4.08325 5.25 4.86675 5.25 5.83325C5.25 6.79975 6.0335 7.58325 7 7.58325Z" stroke="#18302F" stroke-width="1.16667" stroke-linecap="round" stroke-linejoin="round"/>
</g>
<defs>
<clipPath id="clip0_15_3390">
<rect width="14" height="14" fill="white"/>
</clipPath>
</defs>
</svg>
