<svg width="20" height="20" viewBox="0 0 20 20" fill="none" xmlns="http://www.w3.org/2000/svg">
<path d="M16.325 5.57533C15.4943 5.39265 14.7428 4.95152 14.1784 4.31524C13.614 3.67895 13.2656 2.88022 13.1833 2.03366V1.66699H10.3083V13.0587C10.3089 13.5641 10.1504 14.057 9.85537 14.4674C9.56029 14.8778 9.14356 15.1849 8.66422 15.3453C8.18487 15.5057 7.66721 15.5112 7.18456 15.3611C6.70191 15.2109 6.27874 14.9127 5.975 14.5087C5.70287 14.151 5.53624 13.7244 5.49394 13.277C5.45164 12.8296 5.53537 12.3793 5.73565 11.977C5.93593 11.5747 6.24477 11.2365 6.62726 11.0005C7.00974 10.7646 7.45061 10.6404 7.9 10.642C8.14853 10.6406 8.39583 10.6771 8.63333 10.7503V7.83366C8.35695 7.79943 8.07842 7.7855 7.8 7.79199C6.77442 7.8194 5.7791 8.14527 4.9359 8.72972C4.09271 9.31416 3.43824 10.1318 3.05265 11.0825C2.66705 12.0332 2.56706 13.0758 2.76493 14.0825C2.96279 15.0891 3.44992 16.0163 4.16667 16.7503C4.90124 17.4972 5.84124 18.0088 6.86724 18.2202C7.89324 18.4315 8.95893 18.3331 9.92888 17.9375C10.8988 17.5418 11.7293 16.8667 12.3147 15.998C12.9001 15.1293 13.2141 14.1062 13.2167 13.0587V7.22533C14.3762 8.05362 15.7667 8.4967 17.1917 8.49199V5.65866C16.9117 5.65981 16.6325 5.63189 16.3583 5.57533H16.325Z" fill="#FAF5EA" fill-opacity="0.8"/>
</svg>
